<svg width="3000" height="3000" viewBox="0 0 3000 3000" fill="none" xmlns="http://www.w3.org/2000/svg">
<path d="M2200.7 2335.27L2194.89 2491.98L2265.87 2481.4L2276.44 2349.69L2200.7 2335.27Z" fill="#D7A28E"/>
<path d="M2271.62 2439.02C2280.92 2431.14 2286.85 2547.05 2278.94 2550.67C2271.03 2554.29 2064.51 2573.26 2044.83 2566.01C2025.15 2558.76 2021.47 2520.33 2052.91 2511.71C2084.35 2503.09 2150.42 2487.08 2169.03 2460.3C2169.03 2460.3 2180.84 2425.41 2185.82 2421.89C2190.81 2418.36 2194.26 2444.1 2194.26 2444.1C2194.26 2444.1 2249.29 2457.95 2271.62 2439.02Z" fill="#6f4e37"/>
<path d="M2073.27 2506.28C2072.9 2507.57 2075.46 2509.15 2078.1 2512.32C2080.75 2515.53 2083.24 2520.86 2085.13 2527.44C2088.81 2540.67 2089.8 2552.61 2092.25 2552.65C2094.44 2552.83 2097.47 2540.39 2093.29 2525.07C2091.17 2517.5 2086.9 2510.8 2082.04 2507.78C2077.12 2504.79 2073.45 2505.34 2073.27 2506.28Z" fill="#f8e1cc"/>
<path d="M2284.42 2531.3C2284.92 2535.34 2286.16 2553.33 2278.95 2555.24C2271.74 2557.15 2038.19 2574.25 2036.44 2571.14C2034.69 2568.04 2033.41 2556.16 2032.49 2553.93C2031.57 2551.7 2284.42 2531.3 2284.42 2531.3Z" fill="#11405C"/>
<path d="M2155.18 2495.98C2160.35 2489.3 2146.99 2475.42 2143.44 2476.67C2139.88 2477.92 2150.08 2502.57 2155.18 2495.98Z" fill="#f8e1cc"/>
<path d="M2135.47 2503.82C2140.63 2497.14 2127.28 2483.26 2123.73 2484.51C2120.17 2485.76 2130.37 2510.41 2135.47 2503.82Z" fill="#f8e1cc"/>
<path d="M2114.83 2510.41C2120 2503.73 2106.64 2489.85 2103.09 2491.1C2099.53 2492.35 2109.73 2517 2114.83 2510.41Z" fill="#f8e1cc"/>
<path d="M2201.73 2500.35C2202.45 2511.39 2211.99 2519.75 2223.03 2519.03C2234.07 2518.3 2242.44 2508.77 2241.71 2497.73C2240.99 2486.68 2231.45 2478.32 2220.41 2479.04C2209.37 2479.77 2201.01 2489.31 2201.73 2500.35Z" fill="#f8e1cc"/>
<path d="M2082.19 1296.64L2184.48 2414.13L2285.7 2416.29L2418.96 1281.68L2082.19 1296.64Z" fill="#11405C"/>
<path d="M2457.16 2392.91C2457.47 2397.39 2451.57 2465.46 2452.7 2484.44C2445.11 2493.97 2390.21 2497.32 2385.06 2487.93C2379.91 2478.53 2378.98 2396.36 2378.98 2396.36L2457.16 2392.91Z" fill="#D7A28E"/>
<path d="M2455.77 2565.98C2449.27 2569.41 2304.99 2576.39 2290.81 2577.36C2276.63 2578.33 2278.58 2526.94 2322.3 2522.91L2371.2 2477.62C2372.79 2467.21 2375.11 2455.65 2377.57 2450.86C2382.05 2442.29 2403.34 2439.84 2417.67 2448.09C2424.32 2451.94 2427.73 2460.74 2429.18 2469.6C2443.18 2468.94 2453.74 2469.85 2455.17 2477.51C2457.16 2488.12 2462.3 2562.54 2455.77 2565.98Z" fill="#6f4e37"/>
<path d="M2366.64 2542.97C2365.16 2538.07 2342.35 2517.89 2320.33 2523.41C2320.33 2523.41 2329.31 2508.04 2351.47 2518.45C2367.83 2526.13 2366.64 2542.97 2366.64 2542.97Z" fill="#f8e1cc"/>
<path d="M2428.06 2515.57C2428.61 2523.64 2433.99 2529.85 2440.08 2529.43C2446.16 2529.01 2450.64 2522.13 2450.08 2514.05C2449.52 2505.97 2444.14 2499.76 2438.06 2500.18C2431.98 2500.6 2427.5 2507.49 2428.06 2515.57Z" fill="#f8e1cc"/>
<path d="M2382.51 2511.3C2376.04 2508.22 2344.55 2508.39 2351.23 2503.68C2357.9 2498.97 2381.64 2502.33 2383.76 2507.69C2385.88 2513.04 2382.51 2511.3 2382.51 2511.3Z" fill="#f8e1cc"/>
<path d="M2391.48 2499.95C2385.01 2496.87 2353.52 2497.04 2360.2 2492.33C2366.88 2487.62 2390.61 2490.98 2392.73 2496.34C2394.85 2501.69 2391.48 2499.95 2391.48 2499.95Z" fill="#f8e1cc"/>
<path d="M2400.44 2488.6C2393.98 2485.52 2362.49 2485.69 2369.17 2480.98C2375.84 2476.27 2399.58 2479.64 2401.7 2484.99C2403.81 2490.34 2400.44 2488.6 2400.44 2488.6Z" fill="#f8e1cc"/>
<path d="M2458.68 2552.78C2458.67 2552.67 2395.31 2560.09 2359.75 2562.35C2355.77 2562.6 2351.85 2552.64 2316.24 2554.6C2291.55 2555.59 2283.75 2563.97 2282.94 2564.89C2281.43 2566.62 2279.38 2582.17 2286.43 2582.92C2293.49 2583.67 2453.63 2574.14 2456.15 2571.21C2461.12 2565.43 2458.68 2552.78 2458.68 2552.78Z" fill="#11405C"/>
<path d="M2515.14 1289.62L2469.88 2422.42L2368.11 2419.35L2231.26 1485.59L2160.03 1320.13L2515.14 1289.62Z" fill="#2F627C"/>
<path d="M2068.04 844.505L2035.82 931.914L1807.26 1187.4L1843.76 1225.55L2120.81 1040.8L2162.55 860.195L2068.04 844.505Z" fill="#D7A28E"/>
<path d="M2162.55 860.171L2120.77 1040.8L1843.71 1225.57L1807.3 1187.44L1927.29 1053.3C1943.81 1074.14 1968.62 1105.2 1972.46 1108.57C1978.21 1113.52 2066.64 1064.93 2069.01 1050.3C2071.28 1035.77 2055.62 1034.61 2041.59 1027.63C2027.65 1020.55 2063.31 1023.87 2071 1013.13C2078.78 1002.39 2082.79 926.291 2077.81 918.477C2074.27 912.755 2057.56 902.171 2048.77 896.847L2068.04 844.472L2162.55 860.171Z" fill="#C18C7C"/>
<path d="M2141.93 694.342L2108.16 714.928C2108.16 714.928 2026.98 861.649 2033.85 871.444C2040.73 881.24 2146.27 915.862 2146.27 915.862L2175.83 814.806L2141.93 694.342Z" fill="#D7A28E"/>
<path d="M2159.17 800.827C2146.97 812.796 2132.97 822.942 2118.49 831.973C2093.25 847.715 2063.96 863.004 2033.76 866.999C2033.37 869.138 2033.34 870.714 2033.85 871.445C2040.72 881.24 2146.27 915.863 2146.27 915.863L2175.83 814.806L2168.92 790.253C2165.85 793.896 2162.63 797.439 2159.17 800.827Z" fill="#f8e1cc"/>
<path d="M2046.74 1345.05C2046.74 1345.05 2490.16 1377.44 2526.44 1322.84C2562.72 1268.23 2354.07 674.222 2328.99 665.448C2303.91 656.674 2141.93 694.343 2141.93 694.343C2141.93 694.343 2068.09 1111.14 2046.74 1345.05Z" fill="#D7A28E"/>
<path d="M2127.64 777.392C2127.64 777.392 2084.79 1086.6 2078.05 1092.08C2071.3 1097.56 2113.49 798.109 2127.52 774.375" fill="#f8e1cc"/>
<path d="M2105.84 1348.66C2069.75 1346.72 2046.74 1345.07 2046.74 1345.07C2048.4 1327.14 2050.31 1308.13 2052.47 1288.23C2067 1300.46 2096.53 1327.25 2105.84 1348.66Z" fill="#f8e1cc"/>
<path d="M2526.44 1322.85C2517.86 1335.67 2486.93 1343.69 2444.45 1348.45C2450.03 1330.96 2457.58 1303.82 2465.76 1265.34C2482.47 1187 2462.9 1099.22 2448.67 1122.6C2434.53 1145.89 2345.06 1202.82 2273.93 1224C2213.13 1242.24 2088.33 1271.34 2053.5 1279.41C2055.7 1260.48 2058.07 1240.87 2060.62 1220.76C2150.91 1172.49 2367.36 1056.61 2368.71 1053.63C2370.52 1049.76 2408.91 872.483 2408.91 872.483L2419.3 883.7C2481.48 1062 2548.22 1290 2526.44 1322.85Z" fill="#f8e1cc"/>
<path d="M2216.6 486.792C2216.6 486.792 2250.15 536.6 2246.03 554.377C2241.9 572.153 2226.61 573.209 2226.61 573.209C2226.61 573.209 2250.3 603.067 2221.47 613.785C2192.65 624.502 2177.98 617.791 2177.98 617.791C2177.98 617.791 2103.95 509.77 2139.99 486.361C2176.04 462.952 2184.8 440.926 2216.6 486.792Z" fill="#11405C"/>
<path d="M2162.78 637.351L2184.76 713.844C2184.76 713.844 2241.1 747.548 2257.4 670.6L2205.63 581.611L2162.78 637.351Z" fill="#D7A28E"/>
<path d="M2166.2 688.905C2166.2 688.905 2174.68 719.701 2181.77 727.038C2188.86 734.375 2224.99 726.18 2238.15 724.874C2251.32 723.568 2268.34 676.365 2266.59 670.6C2263.69 661.04 2246.38 651.653 2246.38 651.653C2246.38 651.653 2255.76 697.368 2220.77 701.914C2185.79 706.461 2185.06 702.884 2184.45 700.104C2183.83 697.324 2172.21 667.851 2172.21 667.851L2166.2 688.905Z" fill="#f8e1cc"/>
<path d="M2204.26 634.846C2198.3 648.407 2183.82 678.695 2176.21 681.199L2155.32 611.364L2205.63 581.611C2205.63 581.611 2206 630.892 2204.26 634.846Z" fill="#C18C7C"/>
<path d="M2067.21 511.192C2067.21 511.192 2068.92 679.366 2129.77 670.243C2179.31 662.816 2231.19 602.74 2214.44 548.545C2208.38 528.932 2222.03 469.506 2176.45 465.714C2130.87 461.924 2067.21 511.192 2067.21 511.192Z" fill="#D7A28E"/>
<path d="M2161.16 486.369C2161.16 486.369 2025.52 582.575 2028.12 510.473C2030.73 438.374 2073.95 454.42 2073.95 454.42C2073.95 454.42 2042.78 447.847 2055.47 432.025C2068.15 416.202 2090.84 444.08 2154.12 429.505C2201.58 418.576 2225.15 473.662 2224.2 515.724C2223.88 529.745 2217.71 560.197 2215.04 550.518C2211.67 538.269 2206.13 519.82 2196.85 516.488C2195.04 515.837 2194.76 544.953 2192.84 544.1C2175.61 536.454 2155.53 520.174 2161.16 486.369Z" fill="#11405C"/>
<path d="M2196.64 522.588C2196.64 522.588 2202.41 512.484 2215.49 513.88C2229.77 515.403 2224.17 552.243 2216.1 554.885C2208.31 557.437 2205.41 553.61 2203.59 547.495C2200.48 537.019 2196.64 522.588 2196.64 522.588Z" fill="#D7A28E"/>
<path d="M2210.87 521.981C2207.92 525.747 2203.64 537.059 2209.94 543.16C2209.94 543.16 2208.65 538.293 2210.47 534.653L2216.21 529.98L2209.58 531.204L2210.87 521.981Z" fill="#11405C"/>
<path d="M2171.97 577.406C2173.39 581.2 2169.89 586.015 2164.15 588.159C2158.41 590.302 2152.61 588.968 2151.19 585.174C2149.78 581.382 2153.28 576.568 2159.02 574.421C2164.76 572.278 2170.56 573.615 2171.97 577.406Z" fill="#C18C7C"/>
<path d="M2104.85 590.746C2106.27 594.538 2102.77 599.351 2097.03 601.495C2091.29 603.641 2085.49 602.304 2084.07 598.51C2082.66 594.718 2086.16 589.904 2091.9 587.76C2097.63 585.615 2103.43 586.952 2104.85 590.746Z" fill="#C18C7C"/>
<path d="M2121.93 592.57C2121.36 592.681 2120.78 592.708 2120.19 592.656C2116.48 592.311 2114.23 588.639 2114.14 588.485C2113.86 588.028 2113.82 587.468 2114.02 586.975C2118.21 576.694 2114.24 564.668 2114.21 564.55C2113.91 563.664 2114.38 562.708 2115.27 562.411C2116.17 562.098 2117.11 562.589 2117.4 563.472C2117.58 563.999 2121.59 576.174 2117.49 587.37C2118.13 588.147 2119.26 589.183 2120.52 589.295C2121.7 589.393 2122.98 588.693 2124.32 587.192C2124.94 586.497 2126.01 586.434 2126.7 587.052C2127.4 587.673 2127.46 588.739 2126.84 589.437C2125.27 591.193 2123.63 592.243 2121.93 592.57Z" fill="#11405C"/>
<path d="M2104.82 618.278C2104.82 618.278 2125.38 623.197 2144.67 609.252C2151.18 617.126 2130.49 644.895 2104.82 618.278Z" fill="#11405C"/>
<path d="M2085.33 570.143C2086.33 575.322 2089.98 578.947 2093.52 578.265C2097.05 577.583 2099.14 572.85 2098.14 567.67C2097.15 562.531 2093.44 558.873 2089.91 559.555C2088.34 559.858 2087.06 560.98 2086.25 562.594C2087.48 562.731 2088.48 563.619 2088.72 564.864C2089.03 566.43 2088.02 567.915 2086.46 568.217C2086.01 568.302 2085.55 568.267 2085.11 568.143C2085.11 568.81 2085.2 569.46 2085.33 570.143Z" fill="#11405C"/>
<path d="M2142.94 559.022C2143.94 564.202 2147.6 567.826 2151.13 567.144C2154.66 566.463 2156.71 561.737 2155.71 556.558C2154.72 551.419 2151.05 547.753 2147.52 548.435C2145.95 548.738 2144.66 549.819 2143.81 551.441C2145.12 551.522 2146.21 552.436 2146.46 553.721C2146.76 555.287 2145.76 556.771 2144.19 557.074C2143.67 557.175 2143.16 557.147 2142.71 556.944C2142.71 557.609 2142.81 558.339 2142.94 559.022Z" fill="#11405C"/>
<path d="M2131.34 645.012C2128.07 645.644 2125.84 645.57 2125.61 645.556C2124.73 645.521 2124.06 644.789 2124.1 643.916C2124.14 643.048 2124.88 642.369 2125.74 642.402C2125.88 642.417 2140.07 642.807 2150.34 629.726C2150.9 629.056 2151.88 628.936 2152.56 629.466C2153.25 630.006 2153.36 631.002 2152.83 631.688C2145.68 640.769 2136.96 643.928 2131.34 645.012Z" fill="#C18C7C"/>
<path d="M2103.91 550.364C2103.91 550.364 2075.41 554.394 2072.03 552.161C2068.65 549.929 2076.35 542.36 2089.41 543.105C2102.46 543.849 2107.12 549.643 2103.91 550.364Z" fill="#11405C"/>
<path d="M2129.06 545.508C2129.06 545.508 2157.02 538.641 2159.33 535.31C2161.63 531.981 2151.66 527.823 2139.82 533.372C2127.99 538.922 2125.81 546.036 2129.06 545.508Z" fill="#11405C"/>
<path d="M1483.7 1306.18L1685.54 1149.13L1926.61 1072.91L1742.53 1256.46L1483.7 1306.18Z" fill="#6f4e37"/>
<path d="M1859.88 1482.64L2052.95 1322.84L1926.61 1072.91L1727.67 1227.81L1859.88 1482.64Z" fill="#f8e1cc"/>
<path opacity="0.5" d="M1574.01 1235.91L1637.37 1187.18L1854.65 1127.14L1881.64 1176.58L1858.09 1198.6L1848.94 1192.84L1851.93 1205.84L1834.32 1223.43L1807.3 1169.57L1574.01 1235.91Z" fill="#11405C"/>
<path opacity="0.5" d="M1952.65 1405.99L1933.45 1366.75L1945.75 1357.52L1951.08 1360.87L1949.38 1353.39L1980.02 1326.05L2003.52 1363.84L1952.65 1405.99Z" fill="#11405C"/>
<path d="M1483.7 1306.18L1616.53 1561.42L1859.88 1482.64L1727.67 1227.81L1483.7 1306.18Z" fill="#6f4e37"/>
<path d="M1483.7 1306.18L1727.67 1227.81C1727.67 1227.81 1660.53 1270.75 1609.17 1285.33C1557.81 1299.9 1483.7 1306.18 1483.7 1306.18Z" fill="#f8e1cc"/>
<path d="M1991.6 1184C1966.06 1189.92 1946.45 1205.56 1938.62 1212.59C1925.35 1224.54 1892.39 1280.92 1892.39 1280.92C1892.39 1280.92 1899.23 1286.7 1902.83 1287.32C1908.69 1288.32 1917.82 1282.06 1925.31 1272.66C1921.37 1280.06 1915.47 1294.31 1915.47 1294.31C1915.47 1294.31 1924.98 1298.83 1928.62 1298.33C1933.49 1297.67 1941.04 1291.43 1945.57 1285.34C1943.33 1290.88 1939.01 1300.01 1939.01 1300.01C1939.01 1300.01 1950.26 1303.91 1953.79 1302.87C1960.51 1300.89 1968.04 1291.51 1974.05 1283.02C1970.57 1289.76 1967.34 1302.59 1967.34 1302.59C1967.34 1302.59 1978.07 1304.06 1981.3 1303.2C1993.85 1299.84 2015.91 1266.76 2015.91 1266.76C2052.04 1276.75 2066.04 1256.92 2080.33 1248C2083.75 1245.8 2046.18 1182.14 2046.18 1182.14C2046.18 1182.14 2010.65 1179.54 1991.6 1184Z" fill="#D7A28E"/>
<path d="M1950.86 1236.44C1951.11 1236.7 1949.5 1238.59 1947.07 1241.75C1944.64 1244.92 1941.38 1249.36 1937.95 1254.42C1931.09 1264.51 1925.89 1272.98 1925.31 1272.66C1924.74 1272.36 1929.06 1263.31 1936.01 1253.09C1939.47 1247.98 1943.01 1243.62 1945.81 1240.67C1948.62 1237.73 1950.67 1236.23 1950.86 1236.44Z" fill="#C18C7C"/>
<path d="M1969.18 1250.32C1969.44 1250.55 1968.11 1252.51 1965.98 1255.66C1963.67 1259.15 1960.86 1263.38 1957.75 1268.07C1951.35 1277.79 1946.13 1285.68 1945.57 1285.34C1945.01 1285.02 1949.35 1276.56 1955.79 1266.77C1959 1261.88 1962.16 1257.6 1964.66 1254.66C1967.15 1251.72 1968.95 1250.12 1969.18 1250.32Z" fill="#C18C7C"/>
<path d="M1985.55 1265.76C1986.1 1266.11 1983.56 1271.08 1979.88 1276.88C1976.2 1282.67 1972.77 1287.08 1972.23 1286.74C1971.68 1286.39 1974.22 1281.41 1977.9 1275.62C1981.58 1269.82 1985 1265.41 1985.55 1265.76Z" fill="#C18C7C"/>
<path d="M2296.32 863.782L2304.04 1010.29L2033.37 1191.45L2080.32 1248C2080.32 1248 2384.53 1126.25 2420.61 1099.35C2456.69 1072.45 2421.06 888.606 2421.06 888.606L2296.32 863.782Z" fill="#D7A28E"/>
<path d="M2312.36 1016.99C2309.82 1005.46 2371.7 1033.33 2368.1 1041.3C2364.49 1049.27 2315.52 1031.29 2312.36 1016.99Z" fill="#C18C7C"/>
<path d="M2299.62 713.841C2299.62 713.841 2281.63 879.612 2285.45 888.547C2289.27 897.481 2443.12 919.399 2440.36 905.901C2420.36 807.787 2389.77 705.741 2389.77 705.741L2328.99 665.448C2328.99 665.448 2310.22 687.919 2299.62 713.841Z" fill="#D7A28E"/>
<path d="M2440.35 905.927C2443.12 919.391 2289.31 897.473 2285.46 888.543C2283.75 884.703 2286.18 851.422 2289.46 814.886C2291.13 837.958 2294.07 858.733 2299.57 864.478C2313.5 879.169 2390.49 890.954 2402.16 877.329C2410.2 867.944 2405.93 794.992 2402.47 750.42C2413.23 789.248 2428.58 848.3 2440.35 905.927Z" fill="#f8e1cc"/>
<path d="M1450.9 2158.77L1023.56 2116.12L1057.11 1502.16L1428.16 1505.83L1450.9 2158.77Z" fill="#91C4F6"/>
<path d="M1428.16 1505.83L1446.01 1518.87L1457.36 1506.12L1537.51 2112.61L1505.46 2122.58L1450.9 2158.77L1428.16 1505.83Z" fill="#11405C"/>
<path d="M1158.89 1591.03C1159.56 1599.83 1155.02 1607.36 1148.73 1607.84C1142.44 1608.33 1136.8 1601.58 1136.12 1592.78C1135.44 1583.98 1139.99 1576.45 1146.27 1575.97C1152.56 1575.48 1158.21 1582.22 1158.89 1591.03Z" fill="gray"/>
<path d="M1302.24 1586.91C1302.9 1595.45 1298.49 1602.75 1292.39 1603.22C1286.29 1603.69 1280.82 1597.15 1280.16 1588.61C1279.5 1580.08 1283.91 1572.78 1290.01 1572.31C1296.1 1571.84 1301.58 1578.38 1302.24 1586.91Z" fill="#11405C"/>
<path d="M1141.17 1592C1138.86 1617.17 1136.55 1642.33 1134.23 1667.5C1132.24 1689.12 1129.21 1711.02 1130.1 1732.77C1131.7 1771.88 1153.13 1803.36 1190.46 1816.55C1209.4 1823.24 1229.87 1824.55 1249.76 1822.79C1264.65 1821.47 1282.1 1818.83 1290.53 1804.85C1300.09 1789.02 1288.23 1774.74 1276.79 1763.93C1263.41 1751.29 1233.62 1742.17 1233.11 1721.03C1232.77 1706.56 1243.11 1694.83 1251.6 1684.28C1258.58 1675.6 1265.14 1666.63 1271.06 1657.2C1281.73 1640.2 1299.08 1614.5 1295.06 1593.35C1294.03 1587.89 1285.3 1588.5 1286.35 1594.02C1289.77 1611.97 1274.4 1635 1265.34 1649.92C1255.81 1665.6 1243.04 1678.75 1233.21 1694.12C1225.82 1705.68 1221.21 1720.47 1227.11 1733.7C1233.01 1746.94 1247.38 1752.66 1258.56 1760.4C1266.43 1765.85 1274.14 1772.44 1279.94 1780.08C1289.64 1792.86 1283.49 1805.1 1269.55 1810.41C1252.11 1817.07 1228.49 1815.99 1210.51 1812.79C1169.41 1805.46 1141.21 1776.26 1138.89 1734.14C1137.66 1711.76 1140.98 1689.13 1143.02 1666.88C1145.26 1642.48 1147.51 1618.07 1149.75 1593.67C1150.26 1588.11 1141.69 1586.4 1141.17 1592Z" fill="#11405C"/>
<path d="M1868.52 1790L1586.05 1729.99L1303.58 1771.44L1581.08 1867.13L1868.52 1790Z" fill="#6f4e37"/>
<path d="M1573.4 2154.75L1298.48 2087.62L1303.58 1771.44L1582.05 1830.69L1573.4 2154.75Z" fill="#f8e1cc"/>
<path opacity="0.5" d="M1742.13 1763.15L1653.75 1744.9L1403.41 1791.04L1400.37 1854.57L1435.16 1865.32L1441.61 1854.97L1444.99 1869.65L1471.55 1878.83L1472.44 1810.79L1742.13 1763.15Z" fill="#11405C"/>
<path opacity="0.5" d="M1441.37 2122.62L1441.52 2073.3L1424.47 2069.99L1420.72 2076.01L1418.75 2067.58L1374.14 2054.92L1368.91 2104.89L1441.37 2122.62Z" fill="#11405C"/>
<path d="M1868.52 1790L1859.44 2114.79L1573.4 2154.75L1582.05 1830.69L1868.52 1790Z" fill="#6f4e37"/>
<path d="M1868.52 1790L1582.05 1830.69C1582.05 1830.69 1671.43 1841.21 1730.78 1830.69C1790.14 1820.17 1868.52 1790 1868.52 1790Z" fill="#f8e1cc"/>
<path d="M1472.44 1866.15L1248.94 1818.67L1025.44 1851.46L1245 1927.18L1472.44 1866.15Z" fill="#6f4e37"/>
<path d="M1238.93 2154.75L1021.41 2101.63L1025.44 1851.46L1245.77 1898.34L1238.93 2154.75Z" fill="#f8e1cc"/>
<path opacity="0.5" d="M1372.43 1844.9L1302.5 1830.46L1104.43 1866.97L1102.03 1917.24L1129.55 1925.75L1134.66 1917.55L1137.33 1929.17L1158.34 1936.44L1159.05 1882.6L1372.43 1844.9Z" fill="#11405C"/>
<path opacity="0.5" d="M1134.46 2129.33L1134.59 2090.3L1121.09 2087.68L1118.12 2092.45L1116.57 2085.78L1081.27 2075.76L1077.13 2115.3L1134.46 2129.33Z" fill="#11405C"/>
<path d="M1472.44 1866.15L1465.25 2123.13L1238.93 2154.75L1245.77 1898.34L1472.44 1866.15Z" fill="#6f4e37"/>
<path d="M1472.44 1866.15L1245.77 1898.34C1245.77 1898.34 1316.49 1906.66 1363.46 1898.34C1410.42 1890.02 1472.44 1866.15 1472.44 1866.15Z" fill="#f8e1cc"/>
<path d="M1942.18 1692.48V1665.08H1815.58L1852.08 1451.25H1806.04L1775.62 1665.08H1570.43L1584.63 1451.25H1538.3L1530.19 1665.08H1325.14L1317.03 1451.25H1270.7L1284.9 1665.08H1079.71L1049.29 1451.25H1003.24L1039.75 1665.08H913.149V1692.48H1044.43L1075.46 1874.25H927.94V1901.65H1080.14L1114.75 2104.39H1142.2L1113.36 1901.65H1300.6L1314.07 2104.39H1341.8L1334.11 1901.65H1521.21L1513.52 2104.39H1541.26L1554.72 1901.65H1741.97L1713.12 2104.39H1740.57L1775.18 1901.65H1927.39V1874.25H1779.86L1810.9 1692.48H1942.18ZM1109.46 1874.25L1083.6 1692.48H1286.72L1298.79 1874.25H1109.46ZM1333.07 1874.25L1326.18 1692.48H1529.14L1522.25 1874.25H1333.07ZM1745.86 1874.25H1556.54L1568.61 1692.48H1771.72L1745.86 1874.25Z" fill="#2F627C"/>
<path d="M832.024 1479.8L945.395 2095.01C950.14 2120.75 972.589 2139.44 998.769 2139.44H1856.56C1882.74 2139.44 1905.18 2120.75 1909.93 2095.01L2023.3 1479.8C2029.45 1446.45 2003.84 1415.69 1969.93 1415.69H885.399C851.486 1415.69 825.879 1446.45 832.024 1479.8ZM949.483 1469.04H1905.84C1939.75 1469.04 1965.36 1499.8 1959.21 1533.15L1865.51 2041.66C1860.77 2067.4 1838.32 2086.1 1812.14 2086.1H1043.18C1017 2086.1 994.552 2067.4 989.808 2041.66L896.109 1533.15C889.965 1499.8 915.571 1469.04 949.483 1469.04Z" fill="#11405C"/>
<path d="M1897.53 2136.22C1897.53 2136.22 1262.68 2136.29 1048.44 2136.32C1007.82 2136.33 972.781 2107.9 964.378 2068.17L803.471 1307.39L802.19 1301.95C795.51 1273.58 770.255 1253.48 741.108 1253.35L521.918 1252.37L519.251 1306.12L734.291 1307.19C742.481 1307.23 749.575 1312.88 751.446 1320.85L939.051 2142.38C878.016 2160.7 833.961 2218.28 836.35 2285.82C839.119 2364.09 905.971 2424.93 984.294 2424.93H1576.68C1576.71 2424.93 1576.74 2424.92 1576.76 2424.92H1633.47C1650.72 2424.92 1664.59 2410.49 1663.68 2393.04C1662.85 2377.22 1647.59 2364.41 1631.76 2364.41H1576.99C1576.89 2364.41 1576.79 2364.38 1576.69 2364.38H983.414C937.26 2364.38 897.67 2328.27 896.826 2282.13C895.966 2235.11 933.818 2196.74 980.633 2196.74H1895.82C1911.66 2196.74 1926.92 2183.92 1927.74 2168.1C1928.65 2150.65 1914.78 2136.22 1897.53 2136.22Z" fill="#2F627C"/>
<path d="M1700.1 2463.95C1682.66 2440.24 1654.56 2424.93 1622.82 2424.93C1591.07 2424.93 1562.97 2440.24 1545.53 2463.95C1533.74 2479.89 1526.84 2499.58 1526.84 2520.91C1526.84 2573.98 1569.75 2616.89 1622.82 2616.89C1675.89 2616.89 1718.92 2573.98 1718.92 2520.91C1718.92 2499.58 1711.89 2479.89 1700.1 2463.95ZM1622.82 2577.99C1591.33 2577.99 1565.86 2552.4 1565.86 2520.91C1565.86 2489.55 1591.33 2463.95 1622.82 2463.95C1654.31 2463.95 1679.9 2489.55 1679.9 2520.91C1679.9 2552.4 1654.31 2577.99 1622.82 2577.99Z" fill="#11405C"/>
<path d="M1679.9 2520.91C1679.9 2552.4 1654.31 2577.99 1622.82 2577.99C1591.33 2577.99 1565.86 2552.4 1565.86 2520.91C1565.86 2489.55 1591.33 2463.95 1622.82 2463.95C1654.31 2463.95 1679.9 2489.55 1679.9 2520.91Z" fill="white"/>
<path d="M1644.33 2520.9C1644.33 2532.79 1634.7 2542.46 1622.81 2542.46C1610.96 2542.46 1601.37 2532.79 1601.37 2520.9C1601.37 2509.09 1610.96 2499.42 1622.81 2499.42C1634.7 2499.42 1644.33 2509.09 1644.33 2520.9Z" fill="#11405C"/>
<path d="M1225.59 2463.95C1208.15 2440.24 1180.05 2424.93 1148.3 2424.93C1116.56 2424.93 1088.46 2440.24 1071.02 2463.95C1059.23 2479.89 1052.33 2499.58 1052.33 2520.91C1052.33 2573.98 1095.23 2616.89 1148.3 2616.89C1201.37 2616.89 1244.41 2573.98 1244.41 2520.91C1244.41 2499.58 1237.38 2479.89 1225.59 2463.95ZM1148.3 2577.99C1116.81 2577.99 1091.35 2552.4 1091.35 2520.91C1091.35 2489.55 1116.81 2463.95 1148.3 2463.95C1179.8 2463.95 1205.26 2489.55 1205.26 2520.91C1205.26 2552.4 1179.8 2577.99 1148.3 2577.99Z" fill="#11405C"/>
<path d="M1205.26 2520.91C1205.26 2552.4 1179.8 2577.99 1148.3 2577.99C1116.81 2577.99 1091.34 2552.4 1091.34 2520.91C1091.34 2489.55 1116.81 2463.95 1148.3 2463.95C1179.8 2463.95 1205.26 2489.55 1205.26 2520.91Z" fill="white"/>
<path d="M1169.8 2520.9C1169.8 2532.79 1160.17 2542.46 1148.28 2542.46C1136.43 2542.46 1126.84 2532.79 1126.84 2520.9C1126.84 2509.09 1136.43 2499.42 1148.28 2499.42C1160.17 2499.42 1169.8 2509.09 1169.8 2520.9Z" fill="#11405C"/>
<path d="M425.589 1302C425.161 1312.29 433.303 1320.61 443.38 1320.32L664.314 1314.13L695.309 1313.14C702.168 1312.92 707.264 1304.72 705.962 1296.12L700.426 1259.53C699.425 1252.92 694.942 1248.02 689.675 1247.84L445.492 1237.77C435.949 1237.38 427.96 1244.78 427.556 1254.53L425.589 1302Z" fill="#11405C"/>
<path d="M1846.37 499.901V1008.13C1846.37 1051.87 1810.96 1087.36 1767.21 1087.36H869.178C827.947 1087.36 793.877 1055.65 790.336 1015.13C790.336 953.441 790.021 933.533 790.021 933.533V499.901C790.021 456.152 825.508 420.744 869.178 420.744H1767.21C1810.96 420.744 1846.37 456.152 1846.37 499.901Z" fill="#11405C"/>
<path d="M1253.31 773.503V928.413C1253.31 954.496 1232.22 975.585 1206.22 975.585H964.337C938.255 975.585 917.167 954.496 917.167 928.413V727.84C917.167 701.836 938.255 680.748 964.337 680.748H1169.51C1168.4 684.553 1165.55 687.804 1161.26 689.073C1149.69 692.481 1149.69 708.892 1161.26 712.301C1169.43 714.759 1172.6 724.59 1167.45 731.329C1165.62 733.628 1164.91 736.164 1164.91 738.702C1164.91 746.312 1172.52 753.209 1181.08 750.117C1189.09 747.264 1197.49 753.368 1197.26 761.85C1196.94 773.901 1212.56 778.975 1219.38 769.065C1221.75 765.498 1225.56 763.753 1229.36 763.753C1233.17 763.753 1236.98 765.497 1239.35 769.065C1242.84 774.138 1248.55 775.248 1253.31 773.503Z" fill="white"/>
<path d="M977.082 775.594L1084.28 752.819L1191.48 768.548L1086.17 804.864L977.082 775.594Z" fill="#6f4e37"/>
<path d="M1089.08 914.02L1193.42 888.543L1191.48 768.548L1085.8 791.035L1089.08 914.02Z" fill="#f8e1cc"/>
<path opacity="0.5" d="M1025.05 765.403L1058.59 758.476L1153.6 775.988L1154.75 800.099L1141.55 804.178L1139.1 800.248L1137.82 805.82L1127.74 809.305L1127.4 783.484L1025.05 765.403Z" fill="#11405C"/>
<path opacity="0.5" d="M1139.19 901.827L1139.13 883.108L1145.6 881.851L1147.03 884.138L1147.78 880.937L1164.71 876.133L1166.69 895.096L1139.19 901.827Z" fill="#11405C"/>
<path d="M977.082 775.594L980.527 898.853L1089.08 914.02L1085.8 791.035L977.082 775.594Z" fill="#6f4e37"/>
<path d="M977.082 775.594L1085.8 791.035C1085.8 791.035 1051.88 795.026 1029.35 791.035C1006.83 787.044 977.082 775.594 977.082 775.594Z" fill="#f8e1cc"/>
<path d="M1275.73 692.785C1270.17 691.147 1267.99 684.436 1271.53 679.842C1276.54 673.324 1269.97 664.283 1262.22 667.04C1256.76 668.983 1251.05 664.835 1251.21 659.041C1251.44 650.819 1240.81 647.366 1236.17 654.151C1232.89 658.933 1225.83 658.933 1222.56 654.151C1217.91 647.366 1207.28 650.819 1207.51 659.041C1207.67 664.835 1201.96 668.983 1196.5 667.04C1188.75 664.283 1182.18 673.324 1187.2 679.842C1190.73 684.436 1188.55 691.147 1182.99 692.785C1175.1 695.11 1175.1 706.285 1182.99 708.609C1188.55 710.247 1190.73 716.959 1187.2 721.552C1182.18 728.07 1188.75 737.112 1196.5 734.354C1201.96 732.411 1207.67 736.559 1207.51 742.353C1207.28 750.575 1217.91 754.028 1222.56 747.243C1225.83 742.461 1232.89 742.461 1236.17 747.243C1240.81 754.028 1251.44 750.575 1251.21 742.353C1251.05 736.559 1256.76 732.411 1262.22 734.354C1269.97 737.111 1276.54 728.07 1271.53 721.552C1267.99 716.959 1270.17 710.247 1275.73 708.609C1283.62 706.285 1283.62 695.11 1275.73 692.785Z" fill="white"/>
<path d="M1227.41 718.939C1223.57 718.604 1219.35 717.046 1216.51 714.709L1219.79 710.372C1222.75 712.432 1225.71 713.822 1229.11 713.822C1233.2 713.822 1235.22 712.042 1235.22 709.04C1235.22 701.7 1218.09 702.755 1218.09 692.3C1218.09 687.129 1221.74 683.456 1227.41 682.569V676.895H1232.45V682.456C1236.48 682.904 1239.24 684.625 1241.58 686.793L1237.86 690.52C1235.53 688.632 1233.58 687.572 1230.56 687.572C1227.16 687.572 1225.08 689.13 1225.08 692.023C1225.08 698.693 1242.21 697.362 1242.21 708.596C1242.21 713.876 1238.68 717.77 1232.45 718.771V724.499H1227.41L1227.41 718.939Z" fill="#11405C"/>
<path d="M1690.88 773.503V928.413C1690.88 954.496 1669.8 975.585 1643.79 975.585H1401.91C1375.83 975.585 1354.74 954.496 1354.74 928.413V727.84C1354.74 701.836 1375.83 680.748 1401.91 680.748H1607.09C1605.98 684.553 1603.12 687.804 1598.84 689.073C1587.27 692.481 1587.27 708.892 1598.84 712.301C1607.01 714.759 1610.18 724.59 1605.03 731.329C1603.2 733.628 1602.49 736.164 1602.49 738.702C1602.49 746.312 1610.1 753.209 1618.66 750.117C1626.67 747.264 1635.07 753.368 1634.83 761.85C1634.52 773.901 1650.13 778.975 1656.95 769.065C1659.33 765.498 1663.14 763.753 1666.94 763.753C1670.75 763.753 1674.55 765.497 1676.93 769.065C1680.42 774.138 1686.13 775.248 1690.88 773.503Z" fill="white"/>
<path d="M1414.66 775.594L1521.86 752.819L1629.06 768.548L1523.75 804.864L1414.66 775.594Z" fill="#6f4e37"/>
<path d="M1526.66 914.02L1631 888.543L1629.06 768.548L1523.38 791.035L1526.66 914.02Z" fill="#f8e1cc"/>
<path opacity="0.5" d="M1462.63 765.403L1496.17 758.476L1591.17 775.988L1592.33 800.099L1579.12 804.178L1576.67 800.248L1575.39 805.82L1565.31 809.305L1564.98 783.484L1462.63 765.403Z" fill="#11405C"/>
<path opacity="0.5" d="M1576.77 901.827L1576.71 883.108L1583.18 881.851L1584.61 884.138L1585.35 880.937L1602.28 876.133L1604.27 895.096L1576.77 901.827Z" fill="#11405C"/>
<path d="M1414.66 775.594L1418.1 898.853L1526.66 914.02L1523.38 791.035L1414.66 775.594Z" fill="#6f4e37"/>
<path d="M1414.66 775.594L1523.38 791.035C1523.38 791.035 1489.46 795.026 1466.93 791.035C1444.41 787.044 1414.66 775.594 1414.66 775.594Z" fill="#f8e1cc"/>
<path d="M1713.31 692.785C1707.75 691.147 1705.57 684.436 1709.1 679.842C1714.12 673.324 1707.55 664.283 1699.8 667.04C1694.34 668.983 1688.63 664.835 1688.79 659.041C1689.02 650.819 1678.39 647.366 1673.74 654.151C1670.47 658.933 1663.41 658.933 1660.13 654.151C1655.48 647.366 1644.86 650.819 1645.08 659.041C1645.24 664.835 1639.53 668.983 1634.07 667.04C1626.32 664.283 1619.76 673.324 1624.77 679.842C1628.31 684.436 1626.13 691.147 1620.57 692.785C1612.68 695.11 1612.68 706.285 1620.57 708.609C1626.13 710.247 1628.31 716.959 1624.77 721.552C1619.76 728.07 1626.32 737.112 1634.07 734.354C1639.54 732.411 1645.24 736.559 1645.08 742.353C1644.86 750.575 1655.48 754.028 1660.13 747.243C1663.41 742.461 1670.47 742.461 1673.74 747.243C1678.39 754.028 1689.02 750.575 1688.79 742.353C1688.63 736.559 1694.34 732.411 1699.8 734.354C1707.55 737.111 1714.12 728.07 1709.1 721.552C1705.57 716.959 1707.75 710.247 1713.31 708.609C1721.2 706.285 1721.2 695.11 1713.31 692.785Z" fill="white"/>
<path d="M1664.99 718.939C1661.14 718.604 1656.93 717.046 1654.09 714.709L1657.37 710.372C1660.33 712.432 1663.29 713.822 1666.69 713.822C1670.78 713.822 1672.79 712.042 1672.79 709.04C1672.79 701.7 1655.67 702.755 1655.67 692.3C1655.67 687.129 1659.32 683.456 1664.99 682.569V676.895H1670.02V682.456C1674.05 682.904 1676.82 684.625 1679.15 686.793L1675.44 690.52C1673.11 688.632 1671.16 687.572 1668.14 687.572C1664.73 687.572 1662.66 689.13 1662.66 692.023C1662.66 698.693 1679.78 697.362 1679.78 708.596C1679.78 713.876 1676.26 717.77 1670.02 718.771V724.499H1664.99L1664.99 718.939Z" fill="#11405C"/>
<path d="M1049.61 569.512H1023.37L1019.03 582.064H1005.16L1028.85 516.1H1044.23L1067.92 582.064H1053.95L1049.61 569.512ZM1036.49 531.388L1026.96 558.943H1046.02L1036.49 531.388Z" fill="white"/>
<path d="M1134.57 549.223C1134.57 569.136 1120.89 582.065 1099.85 582.065H1076.82V516.194H1099.85C1120.89 516.193 1134.57 529.218 1134.57 549.223ZM1099.37 570.834C1113.25 570.834 1121.08 562.908 1121.08 549.223C1121.08 535.542 1113.25 527.331 1099.37 527.331H1090.03V570.834H1099.37Z" fill="white"/>
<path d="M1202.27 549.223C1202.27 569.136 1188.59 582.065 1167.55 582.065H1144.52V516.194H1167.55C1188.59 516.193 1202.27 529.218 1202.27 549.223ZM1167.07 570.834C1180.95 570.834 1188.78 562.908 1188.78 549.223C1188.78 535.542 1180.95 527.331 1167.07 527.331H1157.73V570.834H1167.07Z" fill="white"/>
<path d="M1231.2 516.193H1279.52V526.859H1261.96V582.065H1248.76V526.859H1231.2V516.193Z" fill="white"/>
<path d="M1319.75 582.726C1301.16 582.726 1285.97 568.76 1285.97 548.943C1285.97 529.218 1301.16 515.252 1319.75 515.252C1338.53 515.252 1353.44 529.218 1353.44 548.943C1353.44 568.76 1338.43 582.726 1319.75 582.726ZM1319.75 570.93C1331.64 570.93 1339.85 562.339 1339.85 548.942C1339.85 535.542 1331.64 527.143 1319.75 527.143C1307.77 527.143 1299.55 535.542 1299.55 548.942C1299.55 562.339 1307.77 570.93 1319.75 570.93Z" fill="white"/>
<path d="M1415.96 515.344C1430.59 515.344 1442.48 523.177 1446.92 536.671H1431.72C1428.61 530.35 1422.94 527.235 1415.87 527.235C1404.36 527.235 1396.15 535.634 1396.15 549.035C1396.15 562.339 1404.36 570.834 1415.87 570.834C1422.94 570.834 1428.61 567.718 1431.72 561.302H1446.92C1442.48 574.891 1430.59 582.629 1415.96 582.629C1397 582.629 1382.56 568.759 1382.56 549.034C1382.56 529.314 1397 515.344 1415.96 515.344Z" fill="white"/>
<path d="M1498.67 569.512H1472.43L1468.09 582.064H1454.22L1477.91 516.1H1493.29L1516.98 582.064H1503.01L1498.67 569.512ZM1485.55 531.388L1476.02 558.943H1495.08L1485.55 531.388Z" fill="white"/>
<path d="M1550.61 516.193C1566.46 516.193 1574.39 525.348 1574.39 536.39C1574.39 544.412 1569.96 552.527 1559.38 555.358L1575.14 582.064H1559.86L1545.33 556.395H1539.1V582.064H1525.88V516.193H1550.61ZM1550.14 527.143H1539.1V546.487H1550.14C1557.5 546.487 1560.8 542.618 1560.8 536.671C1560.8 530.824 1557.5 527.143 1550.14 527.143Z" fill="white"/>
<path d="M1582.92 516.193H1631.23V526.859H1613.68V582.065H1600.47V526.859H1582.92V516.193Z" fill="white"/>
<path d="M2502.05 458.457L2411.72 484.276L2410.44 526.018L2459.67 698.402L2471.91 694.952L2562.21 669.131L2574.43 665.632L2525.15 493.278L2502.05 458.457ZM2465.03 500.029C2459.74 501.546 2454.23 498.433 2452.69 493.16C2451.19 487.825 2454.23 482.263 2459.58 480.736C2464.85 479.233 2470.46 482.289 2472 487.625C2473.47 492.958 2470.39 498.502 2465.03 500.029Z" fill="#6f4e37"/>
<path d="M2472.46 549.081L2470.43 542.003L2482.69 538.523L2484.77 545.571C2496.03 544.762 2503.84 551.373 2507.51 564.342L2508.39 567.316L2494.16 571.399L2493 567.452C2491.07 560.6 2487.59 558.772 2482.84 560.164C2478.06 561.508 2476.08 564.888 2478 571.724C2483.62 591.357 2513.29 583.923 2521.07 611.301C2524.74 624.224 2521.52 634.186 2511.5 639.388L2513.51 646.369L2501.21 649.895L2499.2 642.897C2487.78 643.792 2479.98 637.025 2476.28 624.053L2474.46 617.49L2488.6 613.48L2490.73 620.956C2492.71 627.779 2496.41 629.415 2501.16 628.023C2505.96 626.664 2508.28 623.352 2506.32 616.515C2500.71 596.834 2471.04 604.285 2463.28 576.986C2459.59 564.142 2462.59 554.418 2472.46 549.081Z" fill="#f8e1cc"/>
<path d="M1727.45 383.112L1723.67 563.886C1723.67 563.886 1843.3 600.563 1846.62 595.843C1849.93 591.123 1890.84 413.739 1890.84 413.739L1727.45 383.112Z" fill="#D7A28E"/>
<path d="M1797.09 450.567C1805.31 452.571 1809.45 458.9 1805.4 468C1801.44 477.121 1793.2 480.433 1784.98 478.429C1776.67 476.404 1772.52 470.075 1776.49 460.953C1780.54 451.853 1788.86 448.563 1797.09 450.567ZM1824.49 458.163L1838.77 461.644L1779.77 511.826L1765.49 508.345L1824.49 458.163ZM1786.79 463.464C1785.13 467.277 1785.9 469.39 1788.49 470.023C1791.09 470.656 1793.52 469.324 1795.19 465.511C1796.85 461.698 1795.99 459.564 1793.4 458.931C1790.8 458.298 1788.45 459.651 1786.79 463.464ZM1819.46 491.601C1827.68 493.605 1831.74 499.913 1827.69 509.014C1823.72 518.135 1815.49 521.447 1807.26 519.443C1799.04 517.439 1794.9 511.11 1798.95 502.009C1802.91 492.888 1811.24 489.597 1819.46 491.601ZM1809.08 504.478C1807.41 508.291 1808.18 510.404 1810.87 511.058C1813.38 511.67 1815.81 510.338 1817.47 506.524C1819.14 502.711 1818.28 500.577 1815.77 499.965C1813.17 499.332 1810.74 500.664 1809.08 504.478Z" fill="#f8e1cc"/>
</svg>
