<svg width="124" height="118" viewBox="0 0 101 77" fill="none" xmlns="http://www.w3.org/2000/svg">
<path d="M98.8614 49.9697H92.1589V47.4209H88.8077V43.5976H97.1858C97.4521 43.5985 97.7146 43.5503 97.951 43.457C98.1874 43.3638 98.3906 43.2284 98.5431 43.0624C98.6988 42.899 98.8012 42.7098 98.842 42.5104C98.8828 42.311 98.8607 42.1071 98.7776 41.9154L93.7508 30.4457C93.6354 30.194 93.4204 29.9757 93.1355 29.8205C92.8505 29.6654 92.5094 29.5811 92.1589 29.5791H82.1052C81.7548 29.5811 81.4137 29.6654 81.1287 29.8205C80.8438 29.9757 80.6288 30.194 80.5134 30.4457L75.4866 41.9154C75.4035 42.1071 75.3814 42.311 75.4222 42.5104C75.463 42.7098 75.5654 42.899 75.7211 43.0624C75.8736 43.2284 76.0768 43.3638 76.3132 43.457C76.5496 43.5503 76.8121 43.5985 77.0784 43.5976H85.4565V47.4209H82.1052V49.9697H75.4028C74.9584 49.9697 74.5322 50.104 74.2179 50.343C73.9037 50.582 73.7272 50.9061 73.7272 51.2441V75.458C73.7272 75.796 73.9037 76.1201 74.2179 76.3591C74.5322 76.5981 74.9584 76.7324 75.4028 76.7324H80.4296C80.874 76.7324 81.3002 76.5981 81.6145 76.3591C81.9287 76.1201 82.1052 75.796 82.1052 75.458V72.9091H92.1589V75.458C92.1589 75.796 92.3355 76.1201 92.6497 76.3591C92.964 76.5981 93.3902 76.7324 93.8346 76.7324H98.8614C99.3058 76.7324 99.732 76.5981 100.046 76.3591C100.36 76.1201 100.537 75.796 100.537 75.458V51.2441C100.537 50.9061 100.36 50.582 100.046 50.343C99.732 50.104 99.3058 49.9697 98.8614 49.9697ZM79.4075 41.0488L83.3117 32.1279H90.9525L94.8567 41.0488H79.4075ZM78.754 74.1836H77.0784V72.9091H78.754V74.1836ZM97.1858 74.1836H95.5102V72.9091H97.1858V74.1836ZM97.1858 70.3603H77.0784V62.7138H97.1858V70.3603ZM97.1858 60.165H77.0784V52.5185H97.1858V60.165ZM67.0247 51.9578V41.0488C67.0207 40.0358 66.4898 39.0651 65.548 38.3487C64.6061 37.6324 63.3298 37.2286 61.9978 37.2256H8.37809C7.04611 37.2286 5.76982 37.6324 4.82796 38.3487C3.8861 39.0651 3.35521 40.0358 3.35123 41.0488V51.9578C2.33597 52.4006 1.49181 53.0389 0.903562 53.8084C0.315313 54.5779 0.00368949 55.4516 0 56.3418V75.458C0 75.796 0.176538 76.1201 0.490777 76.3591C0.805016 76.5981 1.23122 76.7324 1.67562 76.7324H8.37809C8.82249 76.7324 9.24869 76.5981 9.56293 76.3591C9.87717 76.1201 10.0537 75.796 10.0537 75.458V71.6347H60.3222V75.458C60.3222 75.796 60.4988 76.1201 60.813 76.3591C61.1272 76.5981 61.5534 76.7324 61.9978 76.7324H68.7003C69.1447 76.7324 69.5709 76.5981 69.8851 76.3591C70.1994 76.1201 70.3759 75.796 70.3759 75.458V56.3418C70.3722 55.4516 70.0606 54.5779 69.4724 53.8084C68.8841 53.0389 68.04 52.4006 67.0247 51.9578ZM6.70247 41.0488C6.70247 40.7108 6.87901 40.3867 7.19325 40.1477C7.50749 39.9087 7.93368 39.7744 8.37809 39.7744H61.9978C62.4422 39.7744 62.8684 39.9087 63.1827 40.1477C63.4969 40.3867 63.6735 40.7108 63.6735 41.0488V51.2441H58.0601C58.4428 50.6487 58.6433 49.9952 58.6466 49.3325C58.6466 48.1495 58.0287 47.015 56.9289 46.1785C55.829 45.342 54.3373 44.8721 52.7819 44.8721H44.4039C42.8485 44.8721 41.3568 45.342 40.2569 46.1785C39.1571 47.015 38.5392 48.1495 38.5392 49.3325C38.5425 49.9952 38.743 50.6487 39.1257 51.2441H31.2503C31.6329 50.6487 31.8334 49.9952 31.8367 49.3325C31.8367 48.1495 31.2188 47.015 30.119 46.1785C29.0192 45.342 27.5275 44.8721 25.9721 44.8721H17.594C16.0386 44.8721 14.5469 45.342 13.447 46.1785C12.3472 47.015 11.7293 48.1495 11.7293 49.3325C11.7327 49.9952 11.9332 50.6487 12.3158 51.2441H6.70247V41.0488ZM55.2954 49.3325C55.2954 49.8395 55.0306 50.3257 54.5592 50.6842C54.0878 51.0427 53.4485 51.2441 52.7819 51.2441H44.4039C43.7373 51.2441 43.098 51.0427 42.6266 50.6842C42.1552 50.3257 41.8904 49.8395 41.8904 49.3325C41.8904 48.8255 42.1552 48.3393 42.6266 47.9808C43.098 47.6223 43.7373 47.4209 44.4039 47.4209H52.7819C53.4485 47.4209 54.0878 47.6223 54.5592 47.9808C55.0306 48.3393 55.2954 48.8255 55.2954 49.3325ZM28.4855 49.3325C28.4855 49.8395 28.2207 50.3257 27.7493 50.6842C27.278 51.0427 26.6387 51.2441 25.9721 51.2441H17.594C16.9274 51.2441 16.2881 51.0427 15.8167 50.6842C15.3454 50.3257 15.0806 49.8395 15.0806 49.3325C15.0806 48.8255 15.3454 48.3393 15.8167 47.9808C16.2881 47.6223 16.9274 47.4209 17.594 47.4209H25.9721C26.6387 47.4209 27.278 47.6223 27.7493 47.9808C28.2207 48.3393 28.4855 48.8255 28.4855 49.3325ZM6.70247 74.1836H3.35123V71.6347H6.70247V74.1836ZM67.0247 74.1836H63.6735V71.6347H67.0247V74.1836ZM67.0247 69.0859H3.35123V65.2627H67.0247V69.0859ZM67.0247 62.7138H3.35123V61.4394H67.0247V62.7138ZM67.0247 58.8906H3.35123V56.3418C3.35389 55.6664 3.70781 55.0193 4.33572 54.5417C4.96362 54.0642 5.81448 53.795 6.70247 53.793H63.6735C64.5614 53.795 65.4123 54.0642 66.0402 54.5417C66.6681 55.0193 67.022 55.6664 67.0247 56.3418V58.8906Z" fill="black"/>
<path d="M90.4834 53.793H83.7809V56.3418H90.4834V53.793Z" fill="black"/>
<path d="M90.4834 63.9883H83.7809V66.5371H90.4834V63.9883Z" fill="black"/>
<path d="M87.1321 19.3838C89.4519 19.3838 91.7197 18.8606 93.6486 17.8803C95.5774 16.9001 97.0808 15.5068 97.9686 13.8768C98.8563 12.2467 99.0886 10.453 98.636 8.72251C98.1835 6.99202 97.0663 5.40247 95.426 4.15486C93.7856 2.90726 91.6956 2.05762 89.4204 1.71341C87.1451 1.36919 84.7867 1.54586 82.6435 2.22106C80.5002 2.89626 78.6684 4.03967 77.3795 5.50671C76.0907 6.97374 75.4028 8.6985 75.4028 10.4629C75.4063 12.828 76.6432 15.0955 78.8421 16.7679C81.041 18.4403 84.0224 19.3811 87.1321 19.3838ZM87.1321 4.09082C88.7891 4.09082 90.4089 4.46454 91.7867 5.16471C93.1645 5.86488 94.2383 6.86006 94.8724 8.0244C95.5065 9.18875 95.6725 10.47 95.3492 11.706C95.0259 12.9421 94.228 14.0775 93.0563 14.9686C91.8846 15.8598 90.3918 16.4666 88.7666 16.7125C87.1414 16.9584 85.4568 16.8322 83.9259 16.3499C82.395 15.8676 81.0866 15.0509 80.166 14.003C79.2454 12.9551 78.754 11.7232 78.754 10.4629C78.7567 8.77353 79.6402 7.15395 81.2108 5.95939C82.7814 4.76484 84.9109 4.09285 87.1321 4.09082Z" fill="black"/>
<path d="M88.8077 10.4629V5.36523H85.4565V9.18847H82.1052V11.7373H87.1321C87.5765 11.7373 88.0027 11.603 88.3169 11.364C88.6312 11.125 88.8077 10.8009 88.8077 10.4629ZM68.7003 0.267578H1.67562C1.23122 0.267578 0.805016 0.401846 0.490777 0.640845C0.176538 0.879844 0 1.204 0 1.54199V33.4023C0 33.7403 0.176538 34.0645 0.490777 34.3035C0.805016 34.5425 1.23122 34.6767 1.67562 34.6767H68.7003C69.1447 34.6767 69.5709 34.5425 69.8851 34.3035C70.1994 34.0645 70.3759 33.7403 70.3759 33.4023V1.54199C70.3759 1.204 70.1994 0.879844 69.8851 0.640845C69.5709 0.401846 69.1447 0.267578 68.7003 0.267578ZM67.0247 32.1279H13.5557L31.7194 23.4874L39.1759 28.0243L41.2537 26.0362L39.1592 24.7491L43.9514 21.4738L47.4032 24.1118C47.7208 24.3488 48.148 24.4815 48.5929 24.4815C49.0378 24.4815 49.4649 24.3488 49.7826 24.1118L52.5138 22.0218L61.1935 23.1178L67.0247 27.5528V32.1279ZM46.4313 19.7661L51.8771 16.0448L57.1218 20.021L52.2122 19.3965C51.9495 19.3648 51.6806 19.3805 51.4273 19.4425C51.174 19.5045 50.9435 19.611 50.7544 19.7534L48.5929 21.4101L46.4313 19.7661ZM67.0247 23.9589L53.1338 13.3813C52.8273 13.1521 52.4173 13.0205 51.9876 13.0134C51.5579 13.0063 51.1408 13.1242 50.8215 13.3431L36.4949 23.1433L32.8756 20.9386C32.6065 20.7731 32.2763 20.6757 31.9309 20.6597C31.5855 20.6437 31.2422 20.71 30.9486 20.8493L7.22191 32.1279H3.35123V6.63964H67.0247V23.9589ZM67.0247 4.09082H3.35123V2.8164H67.0247V4.09082Z" fill="black"/>
</svg>
