   <svg
              width="72"
              height="72"
              viewBox="0 0 12 12"
              fill="#fff7ed"
              xmlns="http://www.w3.org/2000/svg"
            >
              <path
                d="M3.96094 1.33594V11.4141H5.78906V1.33594H3.96094ZM0.585938 2.46094V6.91406H1.66406V2.46094H0.585938ZM4.28906 3H4.71094V10.5H4.28906V3ZM7.30605 3.18023L6.2449 3.37064L7.69392 11.4448L8.75508 11.2544L7.30605 3.18023ZM2.08594 3.58594V9.91406H3.53906V3.58594H2.08594ZM8.68364 4.25812L8.03691 4.53405L8.16567 4.83586L8.81241 4.55993L8.68364 4.25812ZM8.97802 4.94796L8.33121 5.22387L8.45998 5.52567L9.10669 5.24977L8.97797 4.94796H8.97802ZM9.27227 5.63782L8.62554 5.91368L10.9616 11.3893L11.6084 11.1134L9.2723 5.63782H9.27227ZM0.585938 7.33594V8.03906H1.66406V7.33594H0.585938ZM5.03906 7.5H5.46094V10.5H5.03906V7.5ZM0.585938 8.46094V11.4141H1.66406V8.46094H0.585938ZM2.08594 10.3359V11.4141H3.53906V10.3359H2.08594Z"
                fill="#fff7ed"
              />
            </svg>