   <svg
              width="84"
              height="89"
              viewBox="0 0 13 9"
              fill="#ded0b5"
              xmlns="http://www.w3.org/2000/svg"
            >
              <path
                d="M10.5578 3.03506V2.24756C10.5578 1.75028 10.3602 1.27336 10.0086 0.921733C9.65698 0.570103 9.18007 0.372559 8.68279 0.372559H4.18279C3.68551 0.372559 3.20859 0.570103 2.85696 0.921733C2.50533 1.27336 2.30779 1.75028 2.30779 2.24756V3.03506C1.88393 3.12113 1.50286 3.35108 1.22915 3.68596C0.955433 4.02084 0.805908 4.44005 0.805908 4.87256C0.805908 5.30507 0.955433 5.72428 1.22915 6.05916C1.50286 6.39404 1.88393 6.62399 2.30779 6.71006V8.24756C2.30779 8.44647 2.38681 8.63724 2.52746 8.77789C2.66811 8.91854 2.85888 8.99756 3.05779 8.99756H9.80779C10.0067 8.99756 10.1975 8.91854 10.3381 8.77789C10.4788 8.63724 10.5578 8.44647 10.5578 8.24756V6.71006C10.9816 6.62399 11.3627 6.39404 11.6364 6.05916C11.9101 5.72428 12.0597 5.30507 12.0597 4.87256C12.0597 4.44005 11.9101 4.02084 11.6364 3.68596C11.3627 3.35108 10.9816 3.12113 10.5578 3.03506ZM4.18279 1.12256H8.68279C8.98116 1.12256 9.2673 1.24109 9.47828 1.45206C9.68926 1.66304 9.80779 1.94919 9.80779 2.24756V3.03506C9.38456 3.12208 9.00427 3.35236 8.73104 3.68707C8.4578 4.02179 8.30832 4.44048 8.30779 4.87256H4.55779C4.55726 4.44048 4.40778 4.02179 4.13454 3.68707C3.8613 3.35236 3.48102 3.12208 3.05779 3.03506V2.24756C3.05779 1.94919 3.17631 1.66304 3.38729 1.45206C3.59827 1.24109 3.88442 1.12256 4.18279 1.12256ZM10.2011 5.99756H10.1828C10.0833 5.99756 9.98795 6.03707 9.91762 6.10739C9.8473 6.17772 9.80779 6.2731 9.80779 6.37256V8.24756H3.05779V6.37256C3.05779 6.2731 3.01828 6.17772 2.94795 6.10739C2.87763 6.03707 2.78224 5.99756 2.68279 5.99756H2.66451C2.44282 5.99396 2.22713 5.92493 2.04455 5.79914C1.86196 5.67335 1.72062 5.49642 1.63827 5.29056C1.55592 5.0847 1.53623 4.8591 1.58168 4.64209C1.62713 4.42508 1.73569 4.22634 1.89373 4.07083C2.05177 3.91532 2.25223 3.80997 2.46995 3.76802C2.68766 3.72608 2.91292 3.7494 3.11742 3.83506C3.32193 3.92072 3.49656 4.0649 3.61939 4.24948C3.74221 4.43407 3.80776 4.65084 3.80779 4.87256V6.74756C3.80779 6.84701 3.8473 6.9424 3.91762 7.01272C3.98795 7.08305 4.08333 7.12256 4.18279 7.12256C4.28224 7.12256 4.37763 7.08305 4.44795 7.01272C4.51828 6.9424 4.55779 6.84701 4.55779 6.74756V5.62256H8.30779V6.74756C8.30779 6.84701 8.3473 6.9424 8.41762 7.01272C8.48795 7.08305 8.58333 7.12256 8.68279 7.12256C8.78224 7.12256 8.87763 7.08305 8.94795 7.01272C9.01828 6.9424 9.05779 6.84701 9.05779 6.74756V4.87256C9.05782 4.65084 9.12336 4.43407 9.24619 4.24948C9.36902 4.0649 9.54365 3.92072 9.74815 3.83506C9.95266 3.7494 10.1779 3.72608 10.3956 3.76802C10.6133 3.80997 10.8138 3.91532 10.9718 4.07083C11.1299 4.22634 11.2384 4.42508 11.2839 4.64209C11.3293 4.8591 11.3097 5.0847 11.2273 5.29056C11.145 5.49642 11.0036 5.67335 10.821 5.79914C10.6384 5.92493 10.4228 5.99396 10.2011 5.99756Z"
                fill="#fff7ed"
              />
            </svg>