<svg width="124" height="118" viewBox="0 0 124 118" fill="none" xmlns="http://www.w3.org/2000/svg">
<g clip-path="url(#clip0_10403_32)">
<path d="M48.8485 50.8831H36.1103C37.106 49.2561 37.6321 47.4325 37.6321 45.5016C37.6321 43.5886 37.106 41.7113 36.0915 40.0664C34.9642 38.2428 34.1751 36.2225 33.743 34.0592C33.6115 33.4334 33.0291 32.9686 32.3527 32.9686H27.7121V30.108C30.3988 29.5001 32.4091 27.2116 32.4091 24.4761C32.4091 21.2758 29.6661 18.6655 26.303 18.6655C22.94 18.6655 20.197 21.2758 20.197 24.4761C20.197 27.2116 22.2073 29.5001 24.8939 30.108V32.9686H20.2533C19.577 32.9686 18.9945 33.4334 18.863 34.0592C18.4309 36.2225 17.6418 38.2428 16.5145 40.0664C15.5 41.7113 14.9739 43.5886 14.9739 45.5016C14.9739 47.4325 15.5 49.2561 16.4957 50.8831H3.75757C2.98727 50.8831 2.34848 51.491 2.34848 52.224V95.1331V100.497C2.34848 101.23 2.98727 101.838 3.75757 101.838H9.39393C9.99515 101.838 10.54 101.462 10.7279 100.926L12.2873 96.474H40.3188L41.8782 100.926C42.0661 101.48 42.6109 101.838 43.2121 101.838H48.8485C49.6188 101.838 50.2576 101.23 50.2576 100.497V95.1331V52.224C50.2576 51.491 49.6188 50.8831 48.8485 50.8831ZM23.0151 24.494C23.0151 22.7777 24.4994 21.3652 26.303 21.3652C28.1067 21.3652 29.5909 22.7777 29.5909 24.494C29.5909 26.2104 28.1067 27.6228 26.303 27.6228C24.4994 27.6228 23.0151 26.2104 23.0151 24.494ZM17.7921 45.5016C17.7921 44.0713 18.1867 42.6589 18.957 41.4252C20.0467 39.6552 20.8733 37.7064 21.3994 35.6683H31.2067C31.7327 37.7243 32.5406 39.6552 33.6491 41.4252C34.4006 42.6589 34.8139 44.0713 34.8139 45.5016C34.8139 47.504 34.0436 49.3992 32.6533 50.8831H26.303H19.9715C18.5624 49.3992 17.7921 47.504 17.7921 45.5016ZM5.16666 53.5649L24.8939 53.6007V93.7922H5.16666V53.5649ZM8.37939 99.1559H5.16666V96.474H9.31878L8.37939 99.1559ZM27.7121 53.6007L47.4394 53.5649V93.7922H27.7121V53.6007ZM47.4394 99.1559H44.2267L43.2873 96.474H47.4394V99.1559ZM116.015 72.4807V64.7392C116.015 62.0216 113.704 59.8225 110.848 59.8225H65.7576C62.9018 59.8225 60.5909 62.0216 60.5909 64.7392V72.4807C57.3782 73.1065 54.9545 75.8061 54.9545 79.0422V100.497C54.9545 101.23 55.5933 101.838 56.3636 101.838H120.242C121.013 101.838 121.651 101.23 121.651 100.497V79.0422C121.651 75.8061 119.228 73.0886 116.015 72.4807ZM65.7576 62.5043H110.848C112.145 62.5043 113.197 63.5055 113.197 64.7392V72.4807C109.984 73.1065 107.561 75.8061 107.561 79.0422V84.8528H69.0454V79.0422C69.0454 75.8061 66.6218 73.0886 63.4091 72.4807V64.7392C63.4091 63.5055 64.4612 62.5043 65.7576 62.5043ZM69.0454 87.5346H107.561V89.7695C107.561 91.0031 106.508 92.0043 105.212 92.0043H71.3939C70.0976 92.0043 69.0454 91.0031 69.0454 89.7695V87.5346ZM118.833 99.1559H57.7727V79.0422C57.7727 76.8252 59.6703 75.0195 62 75.0195C64.3297 75.0195 66.2273 76.8252 66.2273 79.0422V89.7695C66.2273 92.4871 68.5382 94.6862 71.3939 94.6862H105.212C108.068 94.6862 110.379 92.4871 110.379 89.7695V79.0422C110.379 76.8252 112.276 75.0195 114.606 75.0195C116.936 75.0195 118.833 76.8252 118.833 79.0422V99.1559Z" fill="black"/>
<path d="M88.303 80.3832C89.0733 80.3832 89.7121 79.7753 89.7121 79.0423V68.315C89.7121 67.582 89.0733 66.9741 88.303 66.9741C87.5327 66.9741 86.8939 67.582 86.8939 68.315V79.0423C86.8939 79.7753 87.5327 80.3832 88.303 80.3832Z" fill="black"/>
<path d="M73.2727 73.6783C74.3104 73.6783 75.1515 72.8778 75.1515 71.8904C75.1515 70.903 74.3104 70.1025 73.2727 70.1025C72.2351 70.1025 71.394 70.903 71.394 71.8904C71.394 72.8778 72.2351 73.6783 73.2727 73.6783Z" fill="black"/>
<path d="M80.7879 73.6783C81.8255 73.6783 82.6667 72.8778 82.6667 71.8904C82.6667 70.903 81.8255 70.1025 80.7879 70.1025C79.7503 70.1025 78.9091 70.903 78.9091 71.8904C78.9091 72.8778 79.7503 73.6783 80.7879 73.6783Z" fill="black"/>
<path d="M77.0303 70.1026C78.0679 70.1026 78.9091 69.3022 78.9091 68.3147C78.9091 67.3273 78.0679 66.5269 77.0303 66.5269C75.9927 66.5269 75.1515 67.3273 75.1515 68.3147C75.1515 69.3022 75.9927 70.1026 77.0303 70.1026Z" fill="black"/>
<path d="M77.0303 77.2545C78.0679 77.2545 78.9091 76.454 78.9091 75.4666C78.9091 74.4792 78.0679 73.6787 77.0303 73.6787C75.9927 73.6787 75.1515 74.4792 75.1515 75.4666C75.1515 76.454 75.9927 77.2545 77.0303 77.2545Z" fill="black"/>
<path d="M95.8182 73.6783C96.8558 73.6783 97.697 72.8778 97.697 71.8904C97.697 70.903 96.8558 70.1025 95.8182 70.1025C94.7806 70.1025 93.9394 70.903 93.9394 71.8904C93.9394 72.8778 94.7806 73.6783 95.8182 73.6783Z" fill="black"/>
<path d="M103.333 73.6783C104.371 73.6783 105.212 72.8778 105.212 71.8904C105.212 70.903 104.371 70.1025 103.333 70.1025C102.296 70.1025 101.455 70.903 101.455 71.8904C101.455 72.8778 102.296 73.6783 103.333 73.6783Z" fill="black"/>
<path d="M99.5757 70.1026C100.613 70.1026 101.455 69.3022 101.455 68.3147C101.455 67.3273 100.613 66.5269 99.5757 66.5269C98.5381 66.5269 97.697 67.3273 97.697 68.3147C97.697 69.3022 98.5381 70.1026 99.5757 70.1026Z" fill="black"/>
<path d="M99.5757 77.2545C100.613 77.2545 101.455 76.454 101.455 75.4666C101.455 74.4792 100.613 73.6787 99.5757 73.6787C98.5381 73.6787 97.697 74.4792 97.697 75.4666C97.697 76.454 98.5381 77.2545 99.5757 77.2545Z" fill="black"/>
<path d="M20.6667 80.3828C21.437 80.3828 22.0758 79.7749 22.0758 79.0419V68.3146C22.0758 67.5816 21.437 66.9737 20.6667 66.9737C19.8964 66.9737 19.2576 67.5816 19.2576 68.3146V79.0419C19.2576 79.7749 19.8964 80.3828 20.6667 80.3828ZM31.9394 66.9737C31.1691 66.9737 30.5303 67.5816 30.5303 68.3146V79.0419C30.5303 79.7749 31.1691 80.3828 31.9394 80.3828C32.7097 80.3828 33.3485 79.7749 33.3485 79.0419V68.3146C33.3485 67.5816 32.7097 66.9737 31.9394 66.9737ZM120.242 -8.11719H63.8788C63.1085 -8.11719 62.4697 -7.50931 62.4697 -6.77628V32.5571C62.4697 33.2901 63.1085 33.898 63.8788 33.898H120.242C121.013 33.898 121.652 33.2901 121.652 32.5571V-6.77628C121.652 -7.50931 121.013 -8.11719 120.242 -8.11719ZM65.2879 -3.54022L69.9849 0.929479V24.8513L65.2879 29.321V-3.54022ZM102.037 24.0646L97.8097 20.0419L105.212 12.9977L111.318 18.8083V24.0646H102.037ZM111.318 15.018L106.208 10.1549C105.663 9.63645 104.761 9.63645 104.216 10.1549L95.8182 18.1468L85.5412 8.36705C84.9964 7.84857 84.0946 7.84857 83.5497 8.36705L72.803 18.5937V1.71615H111.318V15.018ZM72.803 22.384L84.5455 11.2098L98.0539 24.0646H72.803V22.384ZM112.145 -0.965672H71.9764L67.2794 -5.43537H116.842L112.145 -0.965672ZM71.9764 26.7464H112.145L116.842 31.2161H67.2794L71.9764 26.7464ZM114.136 24.8513V18.254C114.136 18.254 114.136 18.254 114.136 18.2361V0.929479L118.833 -3.54022V29.321L114.136 24.8513Z" fill="black"/>
<path d="M95.8182 14.2313C98.6739 14.2313 100.985 12.0322 100.985 9.31461C100.985 6.59704 98.6739 4.39795 95.8182 4.39795C92.9624 4.39795 90.6515 6.59704 90.6515 9.31461C90.6515 12.0322 92.9624 14.2313 95.8182 14.2313ZM95.8182 7.07977C97.1145 7.07977 98.1667 8.08098 98.1667 9.31461C98.1667 10.5483 97.1145 11.5495 95.8182 11.5495C94.5218 11.5495 93.4697 10.5483 93.4697 9.31461C93.4697 8.08098 94.5218 7.07977 95.8182 7.07977Z" fill="black"/>
</g>
<defs>
<clipPath id="clip0_10403_32">
<rect width="124" height="118" fill="white"/>
</clipPath>
</defs>
</svg>
