  <svg
              width="82"
              height="82"
              viewBox="0 0 12 12"
              fill="none"
              xmlns="http://www.w3.org/2000/svg"
            >
              <path
                d="M5.75766 6.50766L6.79688 5.47031C7.21875 5.69953 7.64344 5.81484 8.05359 5.81484C8.4486 5.81501 8.83592 5.70565 9.1725 5.49891C10.2234 4.86234 10.7855 3.36844 10.6758 1.50234C10.6731 1.45655 10.6538 1.41332 10.6214 1.38084C10.589 1.34836 10.5458 1.32888 10.5 1.32609C8.63391 1.21594 7.14 1.77844 6.50344 2.82938C6.07172 3.54188 6.08156 4.38047 6.53203 5.205L5.625 6.10969L4.82531 5.31C5.1375 4.71094 5.13984 4.08187 4.82531 3.56531C4.35422 2.78437 3.24984 2.36672 1.875 2.44734C1.82865 2.44972 1.78483 2.4692 1.75202 2.50202C1.7192 2.53483 1.69972 2.57865 1.69734 2.625C1.61625 4.00125 2.03438 5.10562 2.81531 5.57812C3.06864 5.73233 3.35968 5.81345 3.65625 5.8125C3.97289 5.80842 4.28387 5.72802 4.56281 5.57812L5.35969 6.37781L4.79719 6.94031H2.625C2.57527 6.94031 2.52758 6.96007 2.49242 6.99523C2.45725 7.03039 2.4375 7.07808 2.4375 7.12781C2.4375 7.17754 2.45725 7.22523 2.49242 7.26039C2.52758 7.29556 2.57527 7.31531 2.625 7.31531H3.22453L3.87656 10.2469C3.90375 10.3722 3.97316 10.4843 4.07318 10.5645C4.17319 10.6447 4.29773 10.6882 4.42594 10.6875H7.57453C7.70266 10.6881 7.82709 10.6446 7.927 10.5644C8.02692 10.4842 8.09627 10.3721 8.12344 10.2469L8.77547 7.3125H9.375C9.42473 7.3125 9.47242 7.29275 9.50758 7.25758C9.54275 7.22242 9.5625 7.17473 9.5625 7.125C9.5625 7.07527 9.54275 7.02758 9.50758 6.99242C9.47242 6.95725 9.42473 6.9375 9.375 6.9375H5.32781L5.75766 6.50766ZM6.82172 3.02391C7.36641 2.12391 8.6625 1.63125 10.3078 1.69219C10.3683 3.3375 9.87609 4.63312 8.97609 5.17828C8.36297 5.54953 7.6275 5.52141 6.9 5.09953C6.47859 4.3725 6.45047 3.63703 6.82172 3.02391ZM4.45547 5.20547C3.94734 5.49563 3.43547 5.51437 3.00984 5.25609C2.38031 4.875 2.03203 3.96938 2.0625 2.8125C3.2175 2.78016 4.125 3.12844 4.50469 3.75797C4.76437 4.18547 4.74563 4.69734 4.45547 5.20547ZM8.39297 7.31484L7.75875 10.1681C7.74948 10.2097 7.72633 10.2469 7.6931 10.2736C7.65987 10.3002 7.61855 10.3148 7.57594 10.3148H4.42594C4.38325 10.3149 4.34182 10.3004 4.30849 10.2737C4.27517 10.247 4.25194 10.2098 4.24266 10.1681L3.60937 7.3125L8.39297 7.31484Z"
                fill="#fff7ed"
              />
            </svg>